# xmcd
#
# Track frame offsets:
#	150
#	21883
#	47663
#	66224
#	84546
#	117056
#	132622
#	156743
#	174846
#	202075
#
# Disc length: 3074 seconds
# Revision: 0
# Processed by: cddbd v1.5.2PL0 Copyright (c) Steve Scherf et al.
# Submitted via: dBpowerAMP V12.0
#
DISCID=8c0c000a
DTITLE=Various Artist - Blues Slow Dance
DYEAR=2006
DGENRE=Jazz
TTITLE0=Susan Tedeschi - Wait For Me
TTITLE1=Sean Costello - Simple Twist Of Fate
TTITLE2=Toni Lynn Washington - I Don't Know Why
TTITLE3=Paul Rishell and Annie Raines - Every Night About This Time
TTITLE4=David Maxwell - After Hours
TTITLE5=Kid Bangham and Amyl Justin - Let's Do It Over
TTITLE6=Tony Z - Who Are You Thinking Of
TTITLE7=Jimmie Vaughan - Power Of Love
TTITLE8=The Love Dogs - Learned To Live Without You
TTITLE9=Monster Mike Welch - Blues For Cara
EXTD=
EXTT0=
EXTT1=
EXTT2=
EXTT3=
EXTT4=
EXTT5=
EXTT6=
EXTT7=
EXTT8=
EXTT9=
PLAYORDER=
